<svg width="131" height="82" viewBox="0 0 131 82" fill="none" xmlns="http://www.w3.org/2000/svg">
<path fill-rule="evenodd" clip-rule="evenodd" d="M30.6851 81.4805C36.7156 81.4805 42.3371 79.1491 47.0687 75.1264C51.8004 79.1491 57.4219 81.4805 63.4524 81.4805C70.2291 81.4805 76.4893 78.5365 81.5506 73.5568C86.612 78.5365 92.8722 81.4805 99.6488 81.4805C116.483 81.4805 130.13 63.313 130.13 40.9023C130.13 18.4917 116.483 0.324219 99.6488 0.324219C92.8722 0.324219 86.612 3.26822 81.5506 8.24791C76.4893 3.26822 70.2291 0.324219 63.4524 0.324219C57.4219 0.324219 51.8004 2.6556 47.0687 6.67827C42.3371 2.6556 36.7156 0.324219 30.6851 0.324219C13.8508 0.324219 0.203857 18.4917 0.203857 40.9023C0.203857 63.313 13.8508 81.4805 30.6851 81.4805Z" fill="url(#paint0_radial_5054_8111)"/>
<path fill-rule="evenodd" clip-rule="evenodd" d="M30.6851 81.4805C36.7156 81.4805 42.3371 79.1491 47.0687 75.1264C51.8004 79.1491 57.4219 81.4805 63.4524 81.4805C70.2291 81.4805 76.4893 78.5365 81.5506 73.5568C86.612 78.5365 92.8722 81.4805 99.6488 81.4805C116.483 81.4805 130.13 63.313 130.13 40.9023C130.13 18.4917 116.483 0.324219 99.6488 0.324219C92.8722 0.324219 86.612 3.26822 81.5506 8.24791C76.4893 3.26822 70.2291 0.324219 63.4524 0.324219C57.4219 0.324219 51.8004 2.6556 47.0687 6.67827C42.3371 2.6556 36.7156 0.324219 30.6851 0.324219C13.8508 0.324219 0.203857 18.4917 0.203857 40.9023C0.203857 63.313 13.8508 81.4805 30.6851 81.4805Z" fill="url(#paint1_radial_5054_8111)"/>
<path d="M25.377 42.4074L24.8848 44.2363L26.7353 44.7316L26.381 43.379L25.377 42.4074ZM34.6096 43.379L34.2553 44.7316L36.1057 44.2363L35.6136 42.4074L34.6096 43.379ZM26.381 38.8068L25.377 39.7784L25.751 41.0929L26.381 38.8068Z" fill="white"/>
<path d="M25.75 41.0929L25.376 42.4074L26.38 43.379L25.75 41.0929Z" fill="white"/>
<path d="M25.3761 39.7784L24.0178 41.0929L25.3761 42.4074L25.7502 41.0929L25.3761 39.7784ZM28.1322 45.0745L29.1361 46.0461L30.4945 45.6841L28.1322 45.0745ZM31.8528 46.0461L33.7426 46.5223L34.2544 44.7316L32.8568 45.0745L31.8528 46.0461Z" fill="white"/>
<path d="M32.8562 45.0745L34.2539 44.7316L34.6083 43.379L32.8562 45.0745ZM26.7339 44.7316L27.2458 46.5223L29.1356 46.0461L28.1316 45.0745L26.7339 44.7316ZM30.4939 45.6841L31.8523 46.0461L32.8562 45.0745L30.4939 45.6841Z" fill="white"/>
<path d="M29.137 46.0461L30.4953 47.3606L31.8536 46.0461L30.4953 45.6841L29.137 46.0461ZM26.7353 37.4542L24.8848 37.9495L25.377 39.7784L26.3809 38.8068L26.7353 37.4542ZM26.3809 43.379L26.7353 44.7316L28.133 45.0745L26.3809 43.379ZM35.2396 41.0929L35.6136 39.7784L34.6096 38.8068L35.2396 41.0929Z" fill="white"/>
<path d="M28.1321 37.1113L26.7344 37.4542L26.3801 38.8068L28.1321 37.1113ZM34.6087 38.8068L34.2544 37.4542L32.8567 37.1113L34.6087 38.8068ZM35.6127 42.4074L36.971 41.0929L35.6127 39.7784L35.2387 41.0929L35.6127 42.4074Z" fill="white"/>
<path d="M34.6091 38.8067L32.8571 37.1112L30.4948 36.5016L28.1325 37.1112L26.3804 38.8067L25.7505 41.0928L26.3804 43.3789L28.1325 45.0744L30.4948 45.6841L32.8571 45.0744L34.6091 43.3789L35.2391 41.0928L34.6091 38.8067Z" fill="white"/>
<path d="M34.6083 43.379L35.6123 42.4074L35.2382 41.0929L34.6083 43.379ZM35.6123 39.7784L36.1044 37.9495L34.2539 37.4542L34.6083 38.8068L35.6123 39.7784ZM34.2539 37.4542L33.7421 35.6634L31.8523 36.1397L32.8562 37.1113L34.2539 37.4542ZM29.1356 36.1397L27.2458 35.6634L26.7339 37.4542L28.1316 37.1113L29.1356 36.1397ZM30.4939 36.5016L29.1356 36.1397L28.1316 37.1113L30.4939 36.5016Z" fill="white"/>
<path d="M31.8533 36.1397L30.495 34.8252L29.1367 36.1397L30.495 36.5017L31.8533 36.1397Z" fill="white"/>
<path d="M32.8568 37.1112L31.8528 36.1396L30.4945 36.5016L32.8568 37.1112ZM29.1361 46.046L27.2463 46.5223L28.1322 49.6847L30.4945 47.3605L29.1361 46.046ZM28.1322 49.6847L30.4945 58.2385L32.8568 49.6847L30.4945 47.3605L28.1322 49.6847ZM26.7345 44.7315L24.884 44.2362L24.0178 47.3605L27.2463 46.5223L26.7345 44.7315Z" fill="white"/>
<path d="M24.018 47.3606L21.6557 55.9525L28.1323 49.6848L27.2464 46.5223L24.018 47.3606ZM21.6557 43.379L15.1396 49.6848L24.018 47.3606L24.8841 44.2363L21.6557 43.379Z" fill="white"/>
<path d="M25.3761 42.4074L24.0178 41.0929L21.6555 43.379L24.884 44.2363L25.3761 42.4074ZM25.3761 39.7784L24.884 37.9495L21.6555 38.8068L24.0178 41.0929L25.3761 39.7784Z" fill="white"/>
<path d="M21.6556 38.8068L12.7773 41.0929L21.6556 43.379L24.0179 41.0929L21.6556 38.8068ZM39.3729 43.379L36.105 44.2363L36.9712 47.3606L45.8495 49.6848L39.3729 43.379Z" fill="white"/>
<path d="M34.2546 44.7316L33.7427 46.5223L36.9712 47.3606L36.105 44.2362L34.2546 44.7316ZM31.8529 46.0461L30.4946 47.3606L32.8569 49.6848L33.7427 46.5223L31.8529 46.0461ZM35.6129 42.4074L36.105 44.2362L39.3729 43.379L36.9712 41.0929L35.6129 42.4074Z" fill="white"/>
<path d="M32.8569 49.6849L39.3729 55.9526L36.9712 47.3607L33.7427 46.5224L32.8569 49.6849ZM34.2546 37.4543L36.105 37.9496L36.9712 34.8252L33.7427 35.6635L34.2546 37.4543Z" fill="white"/>
<path d="M39.3729 38.8068L45.8495 32.5391L36.9712 34.8252L36.105 37.9495L39.3729 38.8068ZM36.9712 34.8252L39.3729 26.2333L32.8569 32.5391L33.7427 35.6634L36.9712 34.8252ZM39.3729 43.379L48.2118 41.0929L39.3729 38.8068L36.9712 41.0929L39.3729 43.379Z" fill="white"/>
<path d="M35.6128 39.7784L36.9711 41.0929L39.3728 38.8068L36.1049 37.9495L35.6128 39.7784ZM28.1322 32.5391L21.6555 26.2333L24.0178 34.8252L27.2463 35.6634L28.1322 32.5391Z" fill="white"/>
<path d="M26.7345 37.4542L27.2463 35.6635L24.0178 34.8252L24.884 37.9496L26.7345 37.4542Z" fill="white"/>
<path d="M24.018 34.8252L15.1396 32.5392L21.6557 38.8069L24.8841 37.9496L24.018 34.8252ZM31.8529 36.1398L33.7427 35.6635L32.8569 32.5392L30.4946 34.8252L31.8529 36.1398Z" fill="white"/>
<path d="M32.8569 32.5391L30.4946 23.9472L28.1323 32.5391L30.4946 34.8252L32.8569 32.5391Z" fill="white"/>
<path d="M29.1356 36.1398L30.4939 34.8252L28.1316 32.5392L27.2457 35.6635L29.1356 36.1398Z" fill="white"/>
<path d="M30.494 50.8278C36.0497 50.8278 40.5535 46.4693 40.5535 41.0928C40.5535 35.7163 36.0497 31.3578 30.494 31.3578C24.9383 31.3578 20.4346 35.7163 20.4346 41.0928C20.4346 46.4693 24.9383 50.8278 30.494 50.8278Z" fill="#FE00BA"/>
<path d="M30.4948 49.6847C35.3981 49.6847 39.3731 45.838 39.3731 41.0928C39.3731 36.3476 35.3981 32.5009 30.4948 32.5009C25.5914 32.5009 21.6165 36.3476 21.6165 41.0928C21.6165 45.838 25.5914 49.6847 30.4948 49.6847Z" fill="white"/>
<path d="M83.4796 40.9451C83.4796 46.2748 81.85 51.06 79.2651 54.4896C76.6805 57.9186 73.1885 59.9441 69.4174 59.9441C65.6463 59.9441 62.1543 57.9186 59.5697 54.4896C56.9848 51.06 55.3552 46.2748 55.3552 40.9451C55.3552 35.6155 56.9848 30.8302 59.5697 27.4007C62.1543 23.9717 65.6463 21.9462 69.4174 21.9462C73.1885 21.9462 76.6805 23.9717 79.2651 27.4007C81.85 30.8302 83.4796 35.6155 83.4796 40.9451Z" stroke="white" stroke-width="2.09437"/>
<mask id="mask0_5054_8111" style="mask-type:alpha" maskUnits="userSpaceOnUse" x="54" y="20" width="31" height="41">
<ellipse cx="69.4174" cy="40.9451" rx="15.1094" ry="20.0461" fill="white"/>
</mask>
<g mask="url(#mask0_5054_8111)">
<ellipse cx="78.0941" cy="40.9451" rx="12.7258" ry="16.8837" fill="white"/>
</g>
<path d="M116.509 40.9451C116.509 46.2748 114.88 51.06 112.295 54.4896C109.71 57.9186 106.218 59.9441 102.447 59.9441C98.676 59.9441 95.1839 57.9186 92.5993 54.4896C90.0144 51.06 88.3848 46.2748 88.3848 40.9451C88.3848 35.6155 90.0144 30.8302 92.5993 27.4007C95.1839 23.9717 98.676 21.9462 102.447 21.9462C106.218 21.9462 109.71 23.9717 112.295 27.4007C114.88 30.8302 116.509 35.6155 116.509 40.9451Z" stroke="white" stroke-width="2.09437"/>
<mask id="mask1_5054_8111" style="mask-type:alpha" maskUnits="userSpaceOnUse" x="87" y="20" width="31" height="41">
<ellipse cx="102.447" cy="40.9451" rx="15.1094" ry="20.0461" fill="white"/>
</mask>
<g mask="url(#mask1_5054_8111)">
<ellipse cx="111.124" cy="40.9451" rx="12.7258" ry="16.8837" fill="white"/>
</g>
<defs>
<radialGradient id="paint0_radial_5054_8111" cx="0" cy="0" r="1" gradientUnits="userSpaceOnUse" gradientTransform="translate(-5.32086 0.32422) rotate(44.561) scale(70.3203 112.579)">
<stop stop-color="#FBFFD1"/>
<stop offset="1" stop-color="#D5009C"/>
</radialGradient>
<radialGradient id="paint1_radial_5054_8111" cx="0" cy="0" r="1" gradientUnits="userSpaceOnUse" gradientTransform="translate(93.7431 41.0928) rotate(18.0761) scale(57.7147 92.3977)">
<stop stop-color="#FF41CD"/>
<stop offset="1" stop-color="#D4009C" stop-opacity="0"/>
</radialGradient>
</defs>
</svg>
